# xmcd
#
# Track frame offsets: 
#        150
#        10140
#        20004
#        32036
#        46061
#        58005
#        71238
#        85351
#        96892
#        108811
#        121161
#        139624
#        154991
#        172542
#        183029
#        196228
#        206806
#        217782
#
# Disc length: 3071 seconds
#
# Revision: 1
# Processed by: cddbd v1.5.1PL0 Copyright (c) Steve Scherf et al.
# Submitted via: ExactAudioCopy v0.90b4
#
DISCID=e80bfd12
DTITLE=Various Artist - Allnighter Vol.5
DYEAR=2005
DGENRE=Northern Soul
TTITLE0=LEWIS CLARK  -  I NEED YOUR LOVING SO BAD.
TTITLE1=PRINCE ELLA and SIDNEY JONES  -  BABY SUGAR I LOVE.
TTITLE2=CLARENCE REID  -  I'M YOUR YES MAN.
TTITLE3=RICHARD POPCORN WYLIE  -  HANKY PANKY. 
TTITLE4=KING ERNEST  -  YOU GONNA MISS ME.
TTITLE5=MARTHA STARR  -  SWEET TEMPTATION.
TTITLE6=COMMANDS  -  NO TIME FOR YOU.
TTITLE7=JOSEPH MOORE  -  I STILL CAN'T GET TO YOU.
TTITLE8=DON RAY SAMPSON  -  BABY COME BACK.
TTITLE9=EL ANTHONY  -   WE'VE BEEN IN LOVE TOO LONG.
TTITLE10=MIND and MATTER  -  I'M UNDER YOUR SPELL.
TTITLE11=IKE STRONG  -  YOUR LOVE IS KEEPS ME DANCING.
TTITLE12=JAN JONES  -  INDEPENDANT WOMEN.
TTITLE13=PAGES  -  HEARTACHES and PAIN.
TTITLE14=COOKIE SCOTT &THE CHEVELLES  -  I DON'T CARE [WHAT THE PEOPLE
TTITLE14=SAY]
TTITLE15=ROBIN RICE  -  I'VE HAD IT.
TTITLE16=LEON PETERSON  -  NOW YOUR ON YOUR OWN.
TTITLE17=BILLY MIRANDA  -  COUNT YOUR TEAR DROPS.
EXTD=
EXTT0=
EXTT1=
EXTT2=
EXTT3=
EXTT4=
EXTT5=
EXTT6=
EXTT7=
EXTT8=
EXTT9=
EXTT10=
EXTT11=
EXTT12=
EXTT13=
EXTT14=
EXTT15=
EXTT16=
EXTT17=
PLAYORDER=
